# File created by Blade
# Date/Time:  Thu Jan 22 19:01:15 2015
# Frame Rate: 120.000 fps
#------------------------------------------------------
:FULLY-SPECIFIED
:DEGREES
1873
root -3.052689 33.254113 0.042283 9.502062 -0.240285 2.603715
RightUpLeg -1.285363 -5.949390 -1.340604
RightLeg -1.558691 -0.000000 0.000000
RightFoot -10.367009 -5.249720 3.186246
RightToeBase 5.507266 -0.000000 -0.000000
LeftUpLeg -1.300846 4.401437 1.560275
LeftLeg -1.368951 -0.000000 0.000000
LeftFoot -8.236043 -0.652014 -10.729271
LeftToeBase 7.811023 -0.000000 -0.000000
Spine -12.566788 -3.314226 -4.170444
RightShoulder -29.336040 9.809286 -50.599483
RightArm 134.083129 43.320102 111.063119
RightForeArm 32.394878 0.000000 151.573239
RightHand 19.784835 -0.000000 -13.260273
RightHandThumb1 -24.326973 -0.000000 -32.862282
LeftShoulder -10.953952 17.509831 13.157916
LeftArm -170.812592 60.944743 -266.894091
LeftForeArm 23.069625 -0.000000 132.147988
LeftHand -7.972595 0.000000 -35.769410
LeftHandThumb1 -26.253704 0.000000 33.147579
Head 8.692283 3.673722 4.606397
1874
root -3.050306 33.253076 0.045421 9.503940 -0.227417 2.611586
RightUpLeg -1.278655 -5.934526 -1.351454
RightLeg -1.561389 -0.000000 0.000000
RightFoot -10.378918 -5.279139 3.193709
RightToeBase 5.503846 -0.000000 -0.000000
LeftUpLeg -1.289739 4.400306 1.541602
LeftLeg -1.404290 -0.000000 0.000000
LeftFoot -8.232741 -0.627295 -10.800211
LeftToeBase 7.932320 -0.000000 -0.000000
Spine -12.533660 -3.321886 -4.134681
RightShoulder -29.351799 9.771827 -50.584487
RightArm 134.098226 43.288062 111.034355
RightForeArm 32.392803 0.000000 151.558178
RightHand 19.800094 -0.000000 -13.258339
RightHandThumb1 -24.326973 -0.000000 -32.862282
LeftShoulder -10.954123 17.534273 13.143967
LeftArm -170.777883 60.958789 -266.833021
LeftForeArm 23.086655 -0.000000 132.148941
LeftHand -8.101903 -0.000000 -35.872132
LeftHandThumb1 -26.253704 0.000000 33.147579
Head 8.724903 3.617965 4.602423
1875
root -3.049164 33.252218 0.049914 9.506463 -0.213226 2.618628
RightUpLeg -1.267642 -5.935754 -1.357525
RightLeg -1.569211 -0.000000 0.000000
RightFoot -10.388423 -5.292568 3.199727
RightToeBase 5.525516 -0.000000 -0.000000
LeftUpLeg -1.284877 4.431799 1.542245
LeftLeg -1.394594 -0.000000 0.000000
LeftFoot -8.226290 -0.711678 -10.755258
LeftToeBase 7.869521 -0.000000 -0.000000
Spine -12.510805 -3.351891 -4.105676
RightShoulder -29.337640 9.750717 -50.567139
RightArm 134.122019 43.279317 111.033481
RightForeArm 32.397972 -0.000000 151.546862
RightHand 19.826150 -0.000000 -13.288220
RightHandThumb1 -24.326973 -0.000000 -32.862282
LeftShoulder -10.975309 17.555415 13.137874
LeftArm -170.724418 60.973407 -266.758452
LeftForeArm 23.081807 0.000000 132.145133
LeftHand -8.205241 -0.000000 -35.951449
LeftHandThumb1 -26.253704 0.000000 33.147579
Head 8.774239 3.593838 4.618299
1876
root -3.046445 33.251254 0.054945 9.507282 -0.206356 2.629045
RightUpLeg -1.258504 -5.940872 -1.368287
RightLeg -1.570521 -0.000000 0.000000
RightFoot -10.401428 -5.325188 3.150273
RightToeBase 5.526730 -0.000000 -0.000000
LeftUpLeg -1.275124 4.472266 1.527500
LeftLeg -1.402195 -0.000000 0.000000
LeftFoot -8.216082 -0.756193 -10.719469
LeftToeBase 7.827482 -0.000000 -0.000000
Spine -12.486904 -3.365607 -4.076171
RightShoulder -29.332402 9.753926 -50.577784
RightArm 134.116368 43.261296 111.020887
RightForeArm 32.367710 -0.000000 151.530314
RightHand 19.753954 -0.000000 -13.125765
RightHandThumb1 -24.326973 -0.000000 -32.862282
LeftShoulder -10.984958 17.578466 13.133582
LeftArm -170.671027 61.008378 -266.678339
LeftForeArm 23.068661 -0.000000 132.152737
LeftHand -8.318269 -0.000000 -36.046461
LeftHandThumb1 -26.253704 0.000000 33.147579
Head 8.829882 3.542403 4.619482
1877
root -3.045053 33.250708 0.059082 9.507556 -0.187605 2.635415
RightUpLeg -1.239607 -5.941089 -1.376592
RightLeg -1.587743 -0.000000 0.000000
RightFoot -10.395012 -5.344460 3.156364
RightToeBase 5.465830 -0.000000 -0.000000
LeftUpLeg -1.281658 4.529998 1.519584
LeftLeg -1.382008 -0.000000 0.000000
LeftFoot -8.222629 -0.825310 -10.686239
LeftToeBase 7.863147 -0.000000 -0.000000
Spine -12.456949 -3.388096 -4.038787
RightShoulder -29.326864 9.762700 -50.589827
RightArm 134.139940 43.251501 111.022903
RightForeArm 32.380538 -0.000000 151.518768
RightHand 19.714718 -0.000000 -13.072864
RightHandThumb1 -24.326973 -0.000000 -32.862282
LeftShoulder -10.996006 17.600696 13.112047
LeftArm -170.666846 61.020036 -266.638996
LeftForeArm 23.067172 -0.000000 132.167167
LeftHand -8.453550 -0.000000 -36.130175
LeftHandThumb1 -26.253704 0.000000 33.147579
Head 8.878215 3.457173 4.604150
1878
root -3.042957 33.250359 0.064310 9.505364 -0.159166 2.646739
RightUpLeg -1.213298 -5.968968 -1.387664
RightLeg -1.609177 -0.000000 0.000000
RightFoot -10.402685 -5.347116 3.165551
RightToeBase 5.498108 -0.000000 -0.000000
LeftUpLeg -1.291954 4.603768 1.503736
LeftLeg -1.350742 -0.000000 0.000000
LeftFoot -8.208216 -0.912646 -10.653817
LeftToeBase 7.805939 -0.000000 -0.000000
Spine -12.438011 -3.425054 -4.007632
RightShoulder -29.326798 9.743844 -50.579743
RightArm 134.077026 43.260546 110.933284
RightForeArm 32.279609 -0.000000 151.513344
RightHand 19.794691 -0.000000 -13.174364
RightHandThumb1 -24.326973 -0.000000 -32.862282
LeftShoulder -11.002723 17.636698 13.097800
LeftArm -170.680533 61.037883 -266.618944
LeftForeArm 23.084323 -0.000000 132.185083
LeftHand -8.584631 -0.000000 -36.194801
LeftHandThumb1 -26.253704 0.000000 33.147579
Head 8.947617 3.413499 4.617419
1879
root -3.041201 33.250041 0.069432 9.505905 -0.138261 2.653303
RightUpLeg -1.186393 -5.974006 -1.394861
RightLeg -1.638008 -0.000000 0.000000
RightFoot -10.396139 -5.357176 3.174401
RightToeBase 5.519200 -0.000000 -0.000000
LeftUpLeg -1.307808 4.720642 1.483011
LeftLeg -1.325937 -0.000000 0.000000
LeftFoot -8.211075 -0.999231 -10.688713
LeftToeBase 7.885771 -0.000000 -0.000000
Spine -12.419831 -3.448260 -3.978979
RightShoulder -29.312071 9.740087 -50.582839
RightArm 134.125250 43.257984 110.963249
RightForeArm 32.371428 -0.000000 151.515468
RightHand 19.874509 -0.000000 -13.359486
RightHandThumb1 -24.326973 -0.000000 -32.862282
LeftShoulder -11.004954 17.637096 13.099630
LeftArm -170.638405 61.034802 -266.557825
LeftForeArm 23.092321 -0.000000 132.188889
LeftHand -8.673850 0.000000 -36.229457
LeftHandThumb1 -26.253704 0.000000 33.147579
Head 8.990628 3.354818 4.620832
1880
root -3.040383 33.250618 0.073494 9.501531 -0.114025 2.667812
RightUpLeg -1.163873 -5.995551 -1.406056
RightLeg -1.653020 -0.000000 0.000000
RightFoot -10.397270 -5.378168 3.165961
RightToeBase 5.515475 -0.000000 -0.000000
LeftUpLeg -1.330117 4.806682 1.473596
LeftLeg -1.256841 -0.000000 0.000000
LeftFoot -8.197709 -1.135040 -10.591028
LeftToeBase 7.787898 -0.000000 -0.000000
Spine -12.392691 -3.482789 -3.968838
RightShoulder -29.298611 9.761850 -50.580825
RightArm 134.143316 43.260326 110.964586
RightForeArm 32.374825 -0.000000 151.529900
RightHand 19.831004 -0.000000 -13.327153
RightHandThumb1 -24.326973 -0.000000 -32.862282
LeftShoulder -11.008247 17.645240 13.094522
LeftArm -170.616070 61.050721 -266.507988
LeftForeArm 23.068603 -0.000000 132.203714
LeftHand -8.800897 -0.000000 -36.279360
LeftHandThumb1 -26.253704 0.000000 33.147579
Head 9.041198 3.222542 4.631548
1881
root -3.039584 33.251003 0.078235 9.500460 -0.091825 2.680689
RightUpLeg -1.145253 -5.961913 -1.418035
RightLeg -1.661072 -0.000000 0.000000
RightFoot -10.403800 -5.441164 3.164270
RightToeBase 5.494878 -0.000000 -0.000000
LeftUpLeg -1.363043 4.978461 1.454714
LeftLeg -1.184313 -0.000000 0.000000
LeftFoot -8.187602 -1.311560 -10.541932
LeftToeBase 7.740367 -0.000000 -0.000000
Spine -12.371468 -3.505766 -3.957132
RightShoulder -29.307747 9.727157 -50.564685
RightArm 134.172123 43.244711 110.980170
RightForeArm 32.369022 -0.000000 151.527069
RightHand 19.869138 -0.000000 -13.324961
RightHandThumb1 -24.326973 -0.000000 -32.862282
LeftShoulder -11.006375 17.660867 13.089115
LeftArm -170.609539 61.046094 -266.474654
LeftForeArm 23.109385 0.000000 132.224036
LeftHand -8.888359 -0.000000 -36.328127
LeftHandThumb1 -26.253704 0.000000 33.147579
Head 9.083407 3.081524 4.649511
1882
root -3.039466 33.251272 0.080427 9.505528 -0.065166 2.689892
RightUpLeg -1.134639 -5.956326 -1.424435
RightLeg -1.675859 -0.000000 0.000000
RightFoot -10.407114 -5.472957 3.190297
RightToeBase 5.530120 -0.000000 -0.000000
LeftUpLeg -1.396205 5.031636 1.443326
LeftLeg -1.126744 -0.000000 0.000000
LeftFoot -8.203160 -1.376329 -10.536619
LeftToeBase 7.772407 -0.000000 -0.000000
Spine -12.345675 -3.539362 -3.938635
RightShoulder -29.319677 9.705050 -50.556808
RightArm 134.213330 43.228226 111.000751
RightForeArm 32.390233 -0.000000 151.511729
RightHand 19.923531 -0.000000 -13.291111
RightHandThumb1 -24.326973 -0.000000 -32.862282
LeftShoulder -10.999567 17.678609 13.068100
LeftArm -170.594797 61.045587 -266.436620
LeftForeArm 23.162927 0.000000 132.242567
LeftHand -9.011271 -0.000000 -36.396346
LeftHandThumb1 -26.253704 0.000000 33.147579
Head 9.107932 3.035372 4.673948
1883
root -3.038654 33.252002 0.084045 9.506220 -0.046695 2.702505
RightUpLeg -1.124793 -5.940993 -1.436456
RightLeg -1.676879 -0.000000 0.000000
RightFoot -10.415387 -5.510530 3.192447
RightToeBase 5.544386 -0.000000 -0.000000
LeftUpLeg -1.408895 5.066176 1.431048
LeftLeg -1.104613 -0.000000 0.000000
LeftFoot -8.178727 -1.431209 -10.511602
LeftToeBase 7.723292 -0.000000 -0.000000
Spine -12.324073 -3.560751 -3.932545
RightShoulder -29.324806 9.676568 -50.547121
RightArm 134.253808 43.219696 111.031866
RightForeArm 32.401046 -0.000000 151.496505
RightHand 19.961303 0.000000 -13.277193
RightHandThumb1 -24.326973 -0.000000 -32.862282
LeftShoulder -10.984131 17.716698 13.049412
LeftArm -170.620154 61.062342 -266.439951
LeftForeArm 23.160746 -0.000000 132.249938
LeftHand -9.135900 -0.000000 -36.453253
LeftHandThumb1 -26.253704 0.000000 33.147579
Head 9.132863 2.946801 4.706444
